<!DOCTYPE svg PUBLIC "-//W3C//DTD SVG 20010904//EN" "http://www.w3.org/TR/2001/REC-SVG-20010904/DTD/svg10.dtd">
<svg version="1.0" xmlns="http://www.w3.org/2000/svg" width="1000px" height="636px" viewBox="0 0 10000 6360" preserveAspectRatio="xMidYMid meet">
<g id="layer101" fill="#000000" stroke="none">
<path d="M589 6336 c-61 -41 -73 -69 -65 -150 3 -39 12 -114 21 -166 38 -241 49 -445 50 -915 0 -382 -3 -483 -18 -595 -24 -192 -47 -491 -54 -729 l-6 -204 44 -82 44 -83 -138 -273 c-153 -303 -150 -294 -162 -529 -6 -124 -7 -126 -60 -246 -30 -67 -75 -181 -99 -253 -74 -214 -146 -570 -146 -715 0 -83 15 -102 163 -200 91 -60 151 -89 317 -155 112 -45 218 -90 235 -101 52 -31 300 -91 480 -116 139 -19 200 -36 294 -84 113 -57 173 -72 256 -64 49 4 91 1 140 -11 122 -29 162 -34 344 -50 209 -17 271 -29 446 -86 114 -37 144 -42 247 -47 120 -5 178 6 178 33 0 25 -152 163 -222 201 -55 30 -66 40 -50 42 39 6 125 -45 217 -127 118 -106 157 -125 238 -117 34 3 238 10 452 15 391 9 485 18 611 56 l50 15 12 62 c6 34 18 68 26 76 19 19 85 31 172 32 64 0 76 4 138 41 109 66 123 69 343 84 187 14 220 19 396 64 330 86 395 96 617 96 344 0 511 -49 691 -202 128 -109 176 -116 325 -44 l87 42 36 -34 c20 -19 47 -41 61 -51 34 -22 129 -21 232 4 103 25 140 25 161 2 36 -39 23 -54 -58 -68 -52 -8 -85 -29 -85 -54 0 -22 65 -44 165 -56 l60 -6 130 -127 c186 -182 211 -192 580 -231 241 -25 281 -34 505 -110 228 -77 402 -120 482 -120 70 0 273 39 331 63 54 23 51 52 -10 79 -66 28 -215 101 -293 143 -44 23 -112 46 -215 70 -82 20 -166 41 -185 48 l-35 11 55 7 c30 4 87 7 127 8 85 1 103 7 103 33 0 25 -13 49 -58 107 -59 77 -72 118 -87 283 -19 189 -29 213 -108 251 -40 19 -82 53 -130 103 -51 54 -93 86 -151 117 -45 24 -110 64 -145 90 -100 74 -170 91 -371 92 -91 0 -177 -3 -192 -8 -25 -7 -29 -4 -42 28 -22 53 -60 82 -181 140 -114 54 -213 123 -350 244 -44 39 -107 85 -140 102 -83 45 -227 134 -256 159 l-24 21 39 -6 c66 -11 112 -34 226 -115 125 -89 154 -101 460 -203 257 -85 400 -138 550 -203 58 -26 152 -63 210 -82 95 -33 115 -37 210 -36 106 0 180 18 180 44 0 13 -36 50 -128 128 -57 49 -62 56 -62 94 0 23 5 68 12 100 12 57 12 58 -18 95 -177 220 -352 470 -409 582 -23 47 -26 62 -21 105 19 148 19 160 -4 189 -12 15 -35 34 -52 43 -45 23 -231 63 -328 70 -116 9 -121 13 -68 58 l43 38 65 -8 c36 -5 130 -9 210 -8 128 1 153 4 210 25 59 22 68 29 105 86 46 69 60 82 162 142 100 59 156 78 293 101 66 10 139 24 162 30 100 27 258 138 245 173 -10 27 -54 49 -155 78 -84 25 -101 34 -144 76 -58 57 -171 222 -192 280 -25 72 -44 100 -80 117 -50 24 -135 20 -276 -14 -151 -36 -205 -37 -296 -6 -69 23 -232 94 -247 106 -5 4 11 23 35 41 l43 34 204 -3 c238 -3 518 11 646 34 68 12 207 18 560 24 259 5 476 9 483 9 18 1 14 52 -7 87 -35 57 -109 102 -203 123 -25 6 -199 17 -389 26 -467 21 -608 41 -715 99 l-29 15 53 1 c110 0 201 70 164 126 -12 20 -112 78 -287 169 -231 119 -314 170 -441 270 -127 100 -222 151 -299 160 -33 5 -100 1 -173 -9 -166 -22 -275 -20 -415 8 l-118 24 -108 -38 c-148 -53 -304 -97 -441 -126 -114 -24 -240 -32 -240 -16 0 5 55 26 123 46 161 50 187 66 187 116 0 48 -18 66 -72 75 -71 11 -169 45 -244 86 -68 38 -74 39 -167 39 -97 0 -97 0 -194 -51 -131 -68 -210 -89 -363 -95 -74 -4 -155 -14 -198 -25 -40 -11 -232 -78 -427 -149 -469 -172 -501 -180 -717 -180 -176 0 -204 -5 -239 -46 -32 -38 -30 -52 9 -79 l37 -25 -54 0 c-64 0 -140 19 -262 65 l-91 35 -67 -18 -66 -19 -110 55 c-171 85 -490 220 -595 252 -52 15 -165 42 -250 59 -85 17 -267 63 -405 102 -156 44 -271 72 -305 73 l-55 1 1 -42 c0 -24 -2 -43 -5 -43 -4 0 -56 62 -116 137 -223 279 -357 396 -586 516 -119 62 -210 98 -323 127 -106 27 -153 26 -197 -4z m584 -437 c62 -41 127 -116 127 -145 0 -19 -5 -24 -27 -24 -47 0 -150 55 -167 89 -19 36 -21 97 -3 104 20 9 22 8 70 -24z m6605 -681 c-7 -20 -68 -23 -68 -4 0 12 10 16 36 16 24 0 34 -4 32 -12z m320 -186 c18 -14 38 -34 44 -45 9 -17 8 -19 -8 -12 -11 4 -39 14 -64 20 -67 19 -80 26 -80 41 0 19 31 34 55 27 11 -3 35 -17 53 -31z m-487 -868 c68 -20 166 -71 173 -91 11 -28 -5 -36 -63 -30 -91 10 -301 91 -301 116 0 25 114 28 191 5z m1122 -485 c20 -5 37 -14 37 -18 0 -4 -33 -14 -72 -20 -40 -7 -122 -31 -182 -54 -102 -38 -110 -39 -135 -25 -14 9 -41 19 -60 23 l-35 7 25 14 c38 21 113 44 207 64 101 21 162 24 215 9z m-470 -254 c41 -18 14 -34 -140 -82 -51 -16 -93 -26 -93 -22 0 3 -31 20 -70 37 -38 17 -70 35 -70 41 0 6 19 15 43 21 23 6 47 13 52 15 16 7 258 -1 278 -10z m-1374 -1341 c22 -28 36 -63 28 -71 -14 -13 -49 13 -76 58 -17 27 -31 54 -31 59 0 16 56 -17 79 -46z m413 -243 c60 -38 64 -47 26 -60 -53 -19 -132 -14 -162 10 -84 66 39 112 136 50z m-3018 -900 c27 -10 13 -17 -85 -41 -114 -27 -187 -26 -229 3 -65 43 -55 47 127 46 92 0 177 -4 187 -8z"/>
</g>
<g id="layer102" fill="#ffffff" stroke="none">
<path d="M2748 4718 l-28 -10 0 -118 0 -118 -32 -24 c-18 -13 -72 -48 -120 -77 -57 -34 -88 -59 -88 -70 0 -25 55 -107 85 -127 39 -26 107 -14 204 34 46 23 89 42 97 42 26 0 371 -148 523 -225 36 -18 113 -49 171 -70 58 -20 125 -47 150 -60 25 -13 107 -51 184 -86 254 -115 942 -473 1034 -539 31 -22 70 -58 86 -81 15 -22 38 -44 50 -49 18 -7 27 -28 50 -126 15 -66 31 -126 35 -134 15 -28 56 -40 143 -40 99 0 90 -9 108 115 6 44 22 103 34 131 19 41 32 54 69 72 25 12 53 32 61 44 32 46 10 144 -43 192 -26 24 -106 24 -210 0 -113 -25 -152 -17 -356 70 -99 43 -201 91 -226 107 -25 16 -74 40 -107 54 -81 33 -249 122 -290 154 -18 14 -52 43 -75 63 -31 26 -64 43 -117 57 -79 22 -197 77 -340 159 -70 40 -381 170 -592 246 -72 26 -162 89 -202 141 -30 40 -36 56 -37 99 0 28 -4 74 -7 101 -7 49 -8 50 -57 67 -56 19 -116 22 -157 6z"/>
<path d="M5281 4574 c-12 -15 -22 -32 -22 -38 -1 -6 -4 -60 -8 -121 l-6 -110 -205 -83 c-113 -46 -234 -94 -270 -107 -36 -12 -132 -48 -215 -79 -82 -32 -180 -68 -217 -82 -40 -15 -68 -32 -68 -40 0 -7 28 -28 63 -46 117 -61 217 -40 654 139 167 68 196 76 255 77 63 1 74 -3 182 -58 72 -38 126 -59 146 -58 67 2 139 74 126 127 -8 33 -59 89 -104 116 -91 55 -99 82 -61 218 l21 76 -37 32 c-53 46 -96 63 -158 63 -48 0 -58 -4 -76 -26z"/>
<path d="M3740 3691 c-58 -21 -139 -53 -180 -70 -94 -38 -471 -152 -525 -158 -36 -5 -47 0 -100 40 -83 62 -117 77 -170 77 -53 0 -91 -17 -146 -67 -46 -42 -49 -64 -14 -132 18 -36 46 -66 105 -111 44 -35 80 -66 80 -70 0 -4 -20 -50 -45 -102 -65 -137 -60 -178 24 -207 115 -38 168 9 221 194 13 44 30 88 39 97 31 33 403 199 805 360 82 32 167 68 189 80 39 20 40 21 21 35 -35 28 -143 73 -171 72 -16 0 -75 -17 -133 -38z"/>
<path d="M3808 3337 c-86 -30 -102 -45 -144 -137 -19 -41 -52 -95 -73 -120 -52 -62 -57 -75 -66 -155 -4 -38 -13 -85 -21 -104 -18 -43 -18 -51 3 -51 33 0 99 84 139 180 21 50 50 104 64 118 51 52 160 81 174 47 11 -31 53 -17 96 33 38 43 42 46 53 28 27 -42 60 -76 75 -76 8 0 30 5 47 11 27 10 38 9 77 -10 60 -30 117 -86 138 -135 10 -23 21 -74 25 -114 5 -48 13 -80 26 -95 l18 -22 1 45 c1 25 1 93 0 151 l-1 106 -67 134 c-58 116 -72 136 -103 151 -55 27 -131 38 -268 38 -105 0 -137 -4 -193 -23z"/>
<path d="M3731 3000 c-16 -23 -32 -60 -36 -83 -19 -114 -61 -158 -216 -222 -119 -49 -168 -95 -192 -181 -24 -87 -22 -161 9 -241 18 -49 24 -78 19 -103 -19 -106 -17 -134 9 -170 14 -19 39 -55 56 -80 17 -25 39 -48 50 -52 26 -9 26 -34 0 -48 -46 -25 2 -79 82 -91 29 -5 64 -17 77 -27 37 -27 64 -68 58 -86 -5 -13 -25 -6 -114 41 -59 31 -120 64 -134 74 -27 19 -64 85 -74 131 -12 59 -93 118 -96 71 -7 -78 29 -202 81 -284 64 -98 151 -160 307 -215 196 -70 306 -91 465 -86 46 2 62 7 80 26 13 13 54 33 93 44 43 13 84 33 105 52 18 16 39 30 45 30 6 0 40 25 74 56 102 93 159 241 148 384 -3 36 -14 85 -26 110 -26 57 -26 111 0 213 23 88 22 207 -2 291 -13 48 -56 90 -110 108 -22 7 -64 33 -93 57 l-53 44 -7 90 c-4 50 -12 100 -18 111 -16 31 -60 76 -74 76 -7 0 -22 -20 -33 -45 -23 -52 -51 -61 -51 -16 0 42 -20 53 -97 51 -37 -1 -83 1 -101 5 -26 6 -40 3 -62 -14 -36 -26 -45 -26 -77 -1 -38 30 -59 25 -92 -20z m378 -284 c12 -19 21 -50 21 -74 0 -36 -8 -50 -59 -110 -60 -70 -116 -122 -131 -122 -17 0 -50 54 -81 133 -34 90 -50 197 -29 197 6 0 43 -16 81 -36 l68 -36 28 20 c15 11 37 29 47 41 25 28 31 27 55 -13z m315 -329 c47 -36 66 -75 66 -132 0 -102 -83 -175 -197 -175 -79 0 -124 18 -175 70 -45 45 -48 50 -48 101 0 80 33 122 105 135 22 3 51 13 65 20 16 9 47 13 86 11 49 -2 69 -9 98 -30z m-606 -30 c12 -12 28 -42 37 -66 36 -104 5 -205 -76 -249 -39 -21 -54 -23 -139 -20 -110 4 -157 25 -184 82 -20 43 -21 138 -1 176 34 66 117 98 251 99 82 1 93 -1 112 -22z"/>
</g>


</svg>