<?xml version="1.0" encoding="UTF-8" standalone="no"?>
<!-- Created with Inkscape (http://www.inkscape.org/) -->

<svg
   xmlns:dc="http://purl.org/dc/elements/1.1/"
   xmlns:cc="http://creativecommons.org/ns#"
   xmlns:rdf="http://www.w3.org/1999/02/22-rdf-syntax-ns#"
   xmlns:svg="http://www.w3.org/2000/svg"
   xmlns="http://www.w3.org/2000/svg"
   xmlns:xlink="http://www.w3.org/1999/xlink"
   xmlns:sodipodi="http://sodipodi.sourceforge.net/DTD/sodipodi-0.dtd"
   xmlns:inkscape="http://www.inkscape.org/namespaces/inkscape"
   width="210mm"
   height="297mm"
   viewBox="0 0 744.09448819 1052.3622047"
   id="svg2"
   version="1.1"
   inkscape:version="0.91 r13725"
   sodipodi:docname="laurel_wreath_gold.svg">
  <defs
     id="defs4">
    <linearGradient
       inkscape:collect="always"
       id="linearGradient4257">
      <stop
         style="stop-color:#000000;stop-opacity:1"
         offset="0"
         id="stop4259" />
      <stop
         style="stop-color:#653b1a;stop-opacity:0;"
         offset="1"
         id="stop4261" />
    </linearGradient>
    <linearGradient
       inkscape:collect="always"
       id="linearGradient4241">
      <stop
         style="stop-color:#653b1a;stop-opacity:1"
         offset="0"
         id="stop4243" />
      <stop
         style="stop-color:#caa758;stop-opacity:1"
         offset="1"
         id="stop4245" />
    </linearGradient>
    <linearGradient
       id="linearGradient4430"
       inkscape:collect="always">
      <stop
         id="stop4432"
         offset="0"
         style="stop-color:#ad7c39;stop-opacity:1" />
      <stop
         style="stop-color:#f3e384;stop-opacity:1"
         offset="0.38665622"
         id="stop4434" />
      <stop
         style="stop-color:#e6b964;stop-opacity:1"
         offset="0.48411813"
         id="stop4436" />
      <stop
         id="stop4438"
         offset="0.53644824"
         style="stop-color:#f6e184;stop-opacity:1" />
      <stop
         id="stop4440"
         offset="1"
         style="stop-color:#ac7b38;stop-opacity:1" />
    </linearGradient>
    <linearGradient
       id="linearGradient4378"
       inkscape:collect="always">
      <stop
         id="stop4380"
         offset="0"
         style="stop-color:#834d22;stop-opacity:1" />
      <stop
         style="stop-color:#e5b762;stop-opacity:1"
         offset="0.48411813"
         id="stop4384" />
      <stop
         id="stop4388"
         offset="1"
         style="stop-color:#ad7c39;stop-opacity:0" />
    </linearGradient>
    <linearGradient
       inkscape:collect="always"
       id="linearGradient4358">
      <stop
         style="stop-color:#502e0e;stop-opacity:1"
         offset="0"
         id="stop4360" />
      <stop
         id="stop4370"
         offset="0.27492166"
         style="stop-color:#a37334;stop-opacity:1" />
      <stop
         id="stop4366"
         offset="0.54023129"
         style="stop-color:#f6e687;stop-opacity:1" />
      <stop
         style="stop-color:#855026;stop-opacity:1"
         offset="0.90879416"
         id="stop4368" />
      <stop
         style="stop-color:#281809;stop-opacity:1"
         offset="1"
         id="stop4362" />
    </linearGradient>
    <linearGradient
       inkscape:collect="always"
       id="linearGradient4302">
      <stop
         style="stop-color:#ad7c39;stop-opacity:1"
         offset="0"
         id="stop4304" />
      <stop
         id="stop4314"
         offset="0.23281007"
         style="stop-color:#f3e384;stop-opacity:1" />
      <stop
         id="stop4310"
         offset="0.48411813"
         style="stop-color:#e6b964;stop-opacity:1" />
      <stop
         style="stop-color:#f6e184;stop-opacity:1"
         offset="0.75375593"
         id="stop4312" />
      <stop
         style="stop-color:#ac7b38;stop-opacity:1"
         offset="1"
         id="stop4306" />
    </linearGradient>
    <mask
       maskUnits="userSpaceOnUse"
       id="mask4271">
      <circle
         style="color:#000000;clip-rule:nonzero;display:inline;overflow:visible;visibility:visible;opacity:1;isolation:auto;mix-blend-mode:normal;color-interpolation:sRGB;color-interpolation-filters:linearRGB;solid-color:#000000;solid-opacity:1;fill:#ffffff;fill-opacity:1;fill-rule:evenodd;stroke:none;stroke-width:3.9000001;stroke-linecap:round;stroke-linejoin:round;stroke-miterlimit:4;stroke-dasharray:none;stroke-dashoffset:0;stroke-opacity:1;marker:none;color-rendering:auto;image-rendering:auto;shape-rendering:auto;text-rendering:auto;enable-background:accumulate"
         id="circle4273"
         cx="-1117.1428"
         cy="226.64792"
         r="502.85715" />
    </mask>
    <linearGradient
       inkscape:collect="always"
       xlink:href="#linearGradient4302"
       id="linearGradient4308"
       x1="-1175.7142"
       y1="900.93365"
       x2="-322.85715"
       y2="922.36218"
       gradientUnits="userSpaceOnUse"
       gradientTransform="matrix(0.41299698,0,0,0.41299698,702.66146,337.79538)" />
    <linearGradient
       inkscape:collect="always"
       xlink:href="#linearGradient4378"
       id="linearGradient4376"
       x1="-1291.9851"
       y1="1002.8647"
       x2="-1190.9698"
       y2="927.10327"
       gradientUnits="userSpaceOnUse"
       gradientTransform="matrix(0.412997,0,0,0.412997,702.66149,337.79539)" />
    <linearGradient
       inkscape:collect="always"
       xlink:href="#linearGradient4358"
       id="linearGradient4418"
       gradientUnits="userSpaceOnUse"
       x1="-101.01525"
       y1="1223.078"
       x2="-436.38589"
       y2="1052.3622"
       gradientTransform="matrix(-0.412997,0,0,0.412997,64.086493,337.79539)" />
    <linearGradient
       inkscape:collect="always"
       xlink:href="#linearGradient4430"
       id="linearGradient4426"
       x1="-551.42859"
       y1="-341.92352"
       x2="-551.42859"
       y2="1143.7908"
       gradientUnits="userSpaceOnUse"
       gradientTransform="matrix(0.412997,0,0,0.412997,705.51863,279.93824)" />
    <linearGradient
       inkscape:collect="always"
       xlink:href="#linearGradient4241"
       id="linearGradient4247"
       x1="220.21326"
       y1="757.14514"
       x2="245.97214"
       y2="738.20477"
       gradientUnits="userSpaceOnUse" />
    <linearGradient
       inkscape:collect="always"
       xlink:href="#linearGradient4257"
       id="linearGradient4263"
       x1="196.47467"
       y1="771.41351"
       x2="220.71832"
       y2="756.89258"
       gradientUnits="userSpaceOnUse" />
    <linearGradient
       inkscape:collect="always"
       xlink:href="#linearGradient4358"
       id="linearGradient4275"
       gradientUnits="userSpaceOnUse"
       gradientTransform="matrix(0.412997,0,0,0.412997,690.38816,337.0811)"
       x1="-101.01525"
       y1="1223.078"
       x2="-436.38589"
       y2="1052.3622" />
    <linearGradient
       inkscape:collect="always"
       xlink:href="#linearGradient4241"
       id="linearGradient4277"
       gradientUnits="userSpaceOnUse"
       x1="220.21326"
       y1="757.14514"
       x2="245.97214"
       y2="738.20477"
       gradientTransform="matrix(-1,0,0,1,754.47465,-0.71428571)" />
    <linearGradient
       inkscape:collect="always"
       xlink:href="#linearGradient4378"
       id="linearGradient4279"
       gradientUnits="userSpaceOnUse"
       gradientTransform="matrix(-0.412997,0,0,0.412997,51.813156,337.0811)"
       x1="-1291.9851"
       y1="1002.8647"
       x2="-1190.9698"
       y2="927.10327" />
    <linearGradient
       inkscape:collect="always"
       xlink:href="#linearGradient4257"
       id="linearGradient4281"
       gradientUnits="userSpaceOnUse"
       x1="196.47467"
       y1="771.41351"
       x2="220.71832"
       y2="756.89258"
       gradientTransform="matrix(-1,0,0,1,754.47465,-0.71428571)" />
  </defs>
  <sodipodi:namedview
     id="base"
     pagecolor="#ffffff"
     bordercolor="#666666"
     borderopacity="1.0"
     inkscape:pageopacity="0.0"
     inkscape:pageshadow="2"
     inkscape:zoom="0.7"
     inkscape:cx="366.36516"
     inkscape:cy="488.18418"
     inkscape:document-units="px"
     inkscape:current-layer="layer1"
     showgrid="false"
     inkscape:window-width="1280"
     inkscape:window-height="727"
     inkscape:window-x="0"
     inkscape:window-y="24"
     inkscape:window-maximized="1" />
  <metadata
     id="metadata7">
    <rdf:RDF>
      <cc:Work
         rdf:about="">
        <dc:format>image/svg+xml</dc:format>
        <dc:type
           rdf:resource="http://purl.org/dc/dcmitype/StillImage" />
        <dc:title></dc:title>
      </cc:Work>
    </rdf:RDF>
  </metadata>
  <g
     inkscape:label="Layer 1"
     inkscape:groupmode="layer"
     id="layer1">
    <path
       sodipodi:nodetypes="cccccccc"
       inkscape:connector-curvature="0"
       id="path4265"
       d="m 495.52313,748.37863 164.63101,43.80815 0.10626,3.08132 c -15.04486,3.89217 -29.42604,5.97425 -44.4709,8.25994 8.98653,12.28716 28.21525,32.47416 37.95,43.63899 0.0713,0.83674 0.0567,1.87592 0.095,2.97066 -52.2547,-26.15581 -170.79763,-74.75886 -165.66375,-97.6839 z"
       style="fill:#653b1a;fill-opacity:1;fill-rule:evenodd;stroke:none;stroke-width:1px;stroke-linecap:butt;stroke-linejoin:miter;stroke-opacity:1" />
    <path
       style="fill:url(#linearGradient4275);fill-opacity:1;fill-rule:evenodd;stroke:none;stroke-width:1px;stroke-linecap:butt;stroke-linejoin:miter;stroke-opacity:1"
       d="m 577.69896,755.47303 82.5994,36.87477 c -15.04487,3.89217 -30.08977,5.97425 -45.13467,8.25994 12.15748,16.62272 25.4015,31.61559 38.64475,46.60964 -21.17502,-20.66052 -167.20616,-70.1904 -166.04832,-96.22433 27.63622,-18.63339 61.05228,-14.29051 72.21113,-14.2001 z"
       id="path4267"
       inkscape:connector-curvature="0"
       sodipodi:nodetypes="ccccccc" />
    <path
       sodipodi:nodetypes="ccccc"
       inkscape:connector-curvature="0"
       id="path4269"
       d="m 531.73602,763.75444 53.03301,-43.43655 -34.85027,-14.64722 -62.12437,45.20433 c 9.38384,-3.07901 29.13979,8.03823 43.94163,12.87944"
       style="fill:url(#linearGradient4277);fill-opacity:1;fill-rule:evenodd;stroke:none;stroke-width:1px;stroke-linecap:butt;stroke-linejoin:miter;stroke-opacity:1" />
    <path
       style="color:#000000;clip-rule:nonzero;display:inline;overflow:visible;visibility:visible;opacity:1;isolation:auto;mix-blend-mode:normal;color-interpolation:sRGB;color-interpolation-filters:linearRGB;solid-color:#000000;solid-opacity:1;fill:none;fill-opacity:1;fill-rule:evenodd;stroke:#808080;stroke-width:0.4;stroke-linecap:round;stroke-linejoin:round;stroke-miterlimit:4;stroke-dasharray:0.8,2.4;stroke-dashoffset:0;stroke-opacity:1;marker:none;color-rendering:auto;image-rendering:auto;shape-rendering:auto;text-rendering:auto;enable-background:accumulate"
       d="m 377.14313,142.36133 c -193.29966,0 -349.999994,156.70034 -349.999994,350 0.165634,97.30301 40.830025,190.14525 112.234374,256.24609 l -3.66992,0.70899 -79.802735,33.33593 9.282889,26.78766 8.509131,24.55483 8.942354,25.80498 8.621094,24.87792 149.501947,-69.70117 -0.25,-0.40234 c 43.21914,18.33193 89.68458,27.78178 136.63086,27.78711 48.79281,-0.14933 97.01536,-10.49903 141.57227,-30.38477 l 149.4375,69.66992 35.35547,-102.02539 -79.80274,-33.33593 -4.88281,-0.94336 c 69.13473,-65.9991 108.27076,-157.40072 108.32031,-252.98047 0,-193.29966 -156.70034,-350 -350,-350 z"
       id="path4566"
       inkscape:connector-curvature="0"
       sodipodi:nodetypes="scccccccccccccccccs" />
    <path
       style="fill:#653b1a;fill-opacity:1;fill-rule:evenodd;stroke:none;stroke-width:1px;stroke-linecap:butt;stroke-linejoin:miter;stroke-opacity:1"
       d="m 258.95152,749.09292 -164.631006,43.80815 -0.106263,3.08132 c 15.044859,3.89217 29.426039,5.97425 44.470899,8.25994 -8.98653,12.28716 -28.21525,32.47416 -37.95,43.63899 -0.0713,0.83674 -0.0567,1.87592 -0.095,2.97066 52.2547,-26.15581 170.79764,-74.75886 165.66376,-97.6839 z"
       id="path4414"
       inkscape:connector-curvature="0"
       sodipodi:nodetypes="cccccccc" />
    <path
       sodipodi:nodetypes="ccccccc"
       inkscape:connector-curvature="0"
       id="path4416"
       d="m 176.77569,756.18732 -82.599393,36.87477 c 15.044863,3.89217 30.089763,5.97425 45.134663,8.25994 -12.15748,16.62272 -25.4015,31.61559 -38.64475,46.60964 21.17502,-20.66052 167.20617,-70.1904 166.04833,-96.22433 -27.63623,-18.63339 -61.05229,-14.29051 -72.21114,-14.2001 z"
       style="fill:url(#linearGradient4418);fill-opacity:1;fill-rule:evenodd;stroke:none;stroke-width:1px;stroke-linecap:butt;stroke-linejoin:miter;stroke-opacity:1" />
    <path
       style="fill:url(#linearGradient4247);fill-opacity:1;fill-rule:evenodd;stroke:none;stroke-width:1px;stroke-linecap:butt;stroke-linejoin:miter;stroke-opacity:1"
       d="m 222.73863,764.46873 -53.03301,-43.43655 34.85027,-14.64722 62.12438,45.20433 c -9.38385,-3.07901 -29.1398,8.03823 -43.94164,12.87944"
       id="path4214"
       inkscape:connector-curvature="0"
       sodipodi:nodetypes="ccccc" />
    <path
       style="fill:url(#linearGradient4426);fill-opacity:1"
       d="m 351.36732,757.89149 c 2.67901,-5.50723 7.34939,-11.78066 12.97001,-17.42175 l 8.78348,-8.81546 -4.6906,-2.23675 -4.6905,-2.23679 -8.77312,9.20017 c -7.89701,8.28125 -15.25117,20.30528 -17.64991,28.8573 -0.49498,1.76473 0.71858,5.00329 3.47312,9.26831 l 4.23398,6.55571 1.0785,-7.28222 c 0.59328,-4.00523 2.96247,-11.15508 5.26504,-15.88852 z m 66.64978,15.30612 3.36488,-5.7417 -2.743,-6.95911 c -6.83376,-17.3372 -22.36733,-33.71047 -40.05198,-42.21714 -10.46079,-5.03179 -17.97596,-6.94768 -42.02184,-10.71293 -63.78606,-9.98809 -125.30407,-44.20726 -167.79229,-93.33392 -35.51844,-41.06793 -57.64079,-88.41429 -67.45958,-144.37757 -3.155209,-17.98353 -3.156169,-66.7865 0,-86.48719 4.85238,-30.30413 12.86134,-55.7734 26.07889,-82.93345 22.52635,-46.28785 55.02045,-83.69292 96.96204,-111.61619 4.91544,-3.27258 8.93725,-6.1958 8.93725,-6.49605 0,-1.38417 -20.17065,12.4488 -31.11498,21.3386 -68.73766,55.83366 -108.219466,138.48222 -108.214796,226.52986 0,34.77467 4.482887,61.22298 16.052906,94.748 30.01,86.95668 102.47838,156.48196 190.80309,183.0542 8.37451,2.51949 25.65327,6.4494 38.39724,8.73319 19.66809,3.52464 24.87199,4.98092 34.42512,9.63345 20.05566,9.76751 35.84206,29.35166 37.9403,47.06762 0.44985,3.79837 1.32541,6.59246 1.94571,6.20908 0.62039,-0.38339 2.64204,-3.28081 4.49274,-6.43875 z M 308.67466,750.38667 c 8.57895,-2.77072 17.64759,-10.63868 20.51123,-17.79563 1.20668,-3.01571 1.92876,-5.74817 1.60474,-6.07221 -0.32402,-0.324 -2.88112,0.57535 -5.68258,1.99858 -7.17462,3.64502 -25.04697,9.04438 -32.89835,9.93876 l -6.62022,0.75414 6.62022,-1.97512 c 13.3417,-3.98047 36.41119,-14.83964 36.41119,-17.13929 0,-0.27241 -3.93558,-1.71084 -8.74577,-3.19655 -9.7759,-3.01947 -28.13805,-3.65825 -36.71286,-1.2772 -3.12102,0.86664 -6.94487,3.489 -9.93031,6.81016 -2.67023,2.97048 -7.59877,8.28987 -10.9523,11.82092 -4.14869,4.36831 -5.62961,6.79393 -4.63413,7.58993 3.09422,2.47406 15.58111,8.19655 20.32532,9.3147 8.38013,1.97503 23.36598,1.59863 30.70382,-0.77119 z M 485.52,749.40481 c 2.91289,-1.23462 7.7589,-3.6874 10.76892,-5.45061 l 5.47274,-3.20589 -6.13477,-6.45758 c -3.37407,-3.55165 -8.31954,-8.88794 -10.98976,-11.85842 -2.98545,-3.32116 -6.80929,-5.94352 -9.93032,-6.81016 -8.57482,-2.38105 -26.93698,-1.74227 -36.71286,1.2772 -4.8102,1.48571 -8.74578,2.92414 -8.74578,3.19655 0,2.29965 23.06949,13.15882 36.41118,17.13929 l 6.62022,1.97512 -6.62022,-0.75414 c -7.85136,-0.89438 -25.72371,-6.29374 -32.89834,-9.93876 -2.80146,-1.42323 -5.35856,-2.32258 -5.68258,-1.99858 -0.32401,0.32404 0.39806,3.0565 1.60474,6.07221 2.76958,6.922 11.81332,14.95863 20.04326,17.81149 8.20388,2.84381 29.06486,2.27813 36.79357,-0.99772 z M 255.06323,722.17782 c 6.17413,-2.9889 15.50609,-13.42781 12.80782,-14.32724 -0.72729,-0.24243 -3.59217,0.22859 -6.36644,1.0467 -2.77422,0.8181 -12.78973,1.71287 -22.25661,1.98834 -14.92282,0.43422 -16.06765,0.33018 -8.60628,-0.78194 21.91755,-3.26676 35.74914,-6.81631 35.74914,-9.17411 0,-1.61428 -15.92346,-9.48846 -22.99649,-11.37178 -9.14132,-2.43405 -19.9008,-2.30788 -25.06583,0.29392 -2.33054,1.17396 -6.9186,4.35688 -10.19557,7.07312 -3.27705,2.7162 -7.66601,5.83044 -9.75334,6.92046 l -3.79511,1.9819 4.81728,4.6785 c 5.57212,5.41158 17.99821,12.35481 25.43764,14.21362 8.49919,2.12363 23.12796,0.89353 30.22379,-2.54149 z m 288.63162,-1.85146 c 5.21928,-2.57951 11.76206,-6.89706 14.53959,-9.59458 l 5.0501,-4.90459 -3.79512,-1.9819 c -2.08733,-1.09002 -6.47638,-4.20426 -9.75333,-6.92046 -11.6627,-9.66691 -19.39819,-11.25241 -35.03217,-7.18026 -7.82287,2.0376 -23.22573,9.45529 -23.22573,11.185 0,2.39435 15.21866,6.25616 35.74917,9.07157 l 8.60628,1.18018 -11.91638,0.17663 c -10.87824,0.16128 -18.63745,-0.65125 -30.97976,-3.24425 l -4.49889,-0.94518 2.51282,4.33051 c 5.901,10.16957 16.9288,14.89611 32.81371,14.06408 8.62228,-0.45161 12.09265,-1.36346 19.92971,-5.23675 z m -124.50062,-3.63029 c 12.44781,-2.2672 29.48422,-6.18356 37.85885,-8.70305 79.76205,-23.99621 146.81985,-82.96074 181.46699,-159.56564 19.18272,-42.41315 28.55601,-93.22584 25.08647,-135.99479 -3.47674,-42.85874 -11.5863,-73.36807 -29.07313,-109.37687 -18.0844,-37.23939 -43.7289,-69.96058 -75.86945,-96.80598 -12.34368,-10.31005 -34.08468,-25.57218 -34.08468,-23.92738 0,0.30025 4.02179,3.22347 8.93729,6.49605 41.94154,27.92327 74.43569,65.32834 96.96199,111.61619 13.21451,27.15358 21.2188,52.60518 26.08208,82.93345 3.08225,19.22162 3.0402,68.18785 -0.0741,86.48719 -9.34179,54.88959 -31.87395,103.18199 -67.36328,144.37757 -37.24438,43.23277 -88.6845,74.62247 -145.20695,88.60783 -11.86015,2.93455 -16.37185,3.79349 -38.50084,7.32975 -11.17207,1.7853 -18.53661,3.87209 -18.53661,5.25245 0,1.48918 5.50739,5.23973 7.82075,5.32601 1.02439,0.038 12.04699,-1.78555 24.4948,-4.05278 z m -77.33291,-15.16476 c 0,-0.87675 -5.0159,-7.76893 -12.46253,-17.12422 -5.04788,-6.34179 -5.08411,-6.45316 -0.86137,-2.64808 2.4246,2.18467 7.14137,6.85542 10.48177,10.37943 3.34039,3.52402 6.29556,5.74128 6.56683,4.92726 0.27137,-0.81401 -0.21185,-4.41957 -1.07375,-8.01233 -2.87794,-11.99675 -13.17635,-20.75566 -27.14574,-23.08781 l -5.29617,-0.88419 0.36151,10.32488 c 0.19882,5.67868 0.65027,11.63868 1.00331,13.24445 0.77981,3.54757 8.09425,9.33029 14.85206,11.7419 5.03528,1.79691 13.57408,2.51325 13.57408,1.13871 z m 93.25521,-3.76116 c 8.58786,-5.03281 9.286,-6.44318 10.02016,-20.24294 l 0.66202,-12.44403 -5.29618,0.8728 c -15.58907,2.56905 -25.87073,12.31943 -27.8336,26.39537 l -0.92323,6.6202 9.74431,-9.56926 c 12.68931,-12.46151 13.26946,-12.87622 6.98757,-4.9952 -7.86344,9.86522 -12.46984,16.25912 -12.46984,17.30867 0,2.00955 13.81421,-0.8428 19.10879,-3.94561 z M 294.19821,680.10396 c -7.42896,-13.99268 -6.38411,-14.02603 3.03841,-0.0969 3.28904,4.86217 6.33358,8.48674 6.76576,8.0546 1.5217,-1.52167 0.76201,-11.07871 -1.26748,-15.9444 -3.72936,-8.94152 -15.83588,-18.69736 -23.32488,-18.79602 -2.46874,-0.0326 -5.07491,9.48149 -5.07491,18.52656 0,9.54512 11.95668,19.36507 25.60585,21.03007 0.61107,0.0746 -1.97314,-5.67371 -5.74275,-12.77388 z m 176.89174,8.56633 c 7.09369,-3.69983 12.44399,-10.93262 12.44399,-16.82252 0,-8.39105 -2.62193,-18.55569 -4.78637,-18.55569 -7.28678,0 -19.0837,9.10815 -23.15115,17.87458 -2.40203,5.1769 -3.49273,17.93719 -1.52245,17.81097 0.54615,-0.0349 3.02423,-3.27209 5.50675,-7.19353 8.71888,-13.77263 10.8598,-14.74009 4.10115,-1.85326 l -6.67986,12.7363 4.9907,-0.92749 c 2.7449,-0.51013 6.83863,-1.89133 9.09724,-3.06936 z m -272.11258,-0.96242 c 2.61072,-0.72524 7.04878,-3.3085 9.86224,-5.74059 l 5.11546,-4.42197 -12.51029,-0.76335 c -11.66609,-0.71182 -32.56415,-4.5395 -31.35981,-5.74384 0.29467,-0.29474 5.45197,0.12578 11.4605,0.93435 10.97027,1.47636 30.55963,0.57113 30.55963,-1.41217 0,-0.57335 -2.72318,-3.55254 -6.0514,-6.62042 -7.38571,-6.80789 -20.47904,-13.13031 -29.18815,-14.09412 -5.66425,-0.62686 -7.8372,-0.046 -17.48968,4.67537 -6.06197,2.96515 -11.87127,5.39117 -12.90942,5.39117 -3.53975,0 -1.89529,3.75024 4.90893,11.19515 13.50674,14.77854 31.53182,21.06448 47.60199,16.60042 z m 390.98115,-3.78482 c 12.4797,-6.14371 28.43675,-24.01075 21.44408,-24.01075 -1.03815,0 -6.84741,-2.42602 -12.90942,-5.39117 -9.65248,-4.72137 -11.82538,-5.30223 -17.48965,-4.67537 -8.70913,0.96381 -21.80244,7.28623 -29.18816,14.09412 -3.32832,3.06789 -6.0514,6.04707 -6.0514,6.62042 0,1.9833 19.58937,2.88853 30.55964,1.41217 6.00852,-0.80862 11.16572,-1.22909 11.46052,-0.93435 1.20434,1.20434 -19.69372,5.03202 -31.35982,5.74384 l -12.5104,0.76335 5.14967,4.4515 c 6.679,5.77356 11.14654,7.05502 22.8103,6.54293 7.50394,-0.32947 11.39249,-1.32216 18.08464,-4.61669 z m -329.60518,-9.77729 c -0.50579,-1.63851 -2.30563,-6.83009 -3.99946,-11.53684 -1.69391,-4.70677 -2.81672,-8.82083 -2.49524,-9.14237 0.3216,-0.32154 2.89936,4.33972 5.72835,10.35835 5.69729,12.12093 7.25214,12.1553 7.23426,0.15991 -0.0116,-8.35662 -3.27189,-15.92294 -9.24638,-21.46494 -3.28163,-3.04394 -11.08988,-7.7644 -12.84342,-7.7644 -1.14888,0 -6.14549,16.41016 -6.14549,20.1835 0,7.4056 7.20631,16.26492 16.55053,20.347 5.54246,2.42126 6.26751,2.26279 5.21685,-1.14021 z m 247.6558,-2.1394 c 6.69722,-4.55169 11.27396,-11.30637 11.27396,-16.6389 0,-3.43808 -4.52071,-18.90365 -5.95682,-20.37861 -0.80957,-0.83148 -9.3166,4.08459 -13.03207,7.53102 -5.97462,5.542 -9.23389,13.10832 -9.24638,21.46494 -0.018,11.99539 1.53695,11.96102 7.23425,-0.15991 2.829,-6.01863 5.40675,-10.67989 5.72835,-10.35835 0.32147,0.32154 -0.80132,4.4356 -2.49524,9.14237 -5.46809,15.19417 -5.42805,14.90014 -1.89244,13.88049 1.71035,-0.49328 5.48429,-2.51065 8.38639,-4.48305 z M 224.51,651.63703 c -0.42303,-2.36674 -1.6116,-8.11458 -2.64108,-12.773 -2.77794,-12.57086 -1.18538,-11.34372 3.0594,2.35731 2.05004,6.61699 4.12791,12.03987 4.61772,12.05082 0.48969,0.0107 1.60557,-2.14747 2.47989,-4.79652 3.61483,-10.95306 -2.05367,-26.50931 -12.07666,-33.14219 -2.88747,-1.91082 -5.41939,-3.23807 -5.62634,-2.94945 -0.20708,0.28862 -2.33859,4.8695 -4.73678,10.17976 -4.74695,10.51099 -4.72568,13.33071 0.16023,21.25561 2.56963,4.16764 12.0449,12.12079 14.44065,12.12079 0.60083,0 0.74617,-1.93641 0.32297,-4.30313 z m 315.57286,0.4576 c 2.91978,-2.11503 6.50752,-5.8389 7.97286,-8.27526 4.79834,-7.97799 4.82015,-11.07856 0.15062,-21.4218 -2.35605,-5.21885 -4.45313,-9.72495 -4.66021,-10.01357 -0.20708,-0.28862 -2.73886,1.03863 -5.62633,2.94945 -10.02301,6.63288 -15.6915,22.18913 -12.07665,33.14219 0.87429,2.64905 1.99019,4.80748 2.47988,4.79652 0.48969,-0.0107 2.56769,-5.43383 4.61773,-12.05082 4.24478,-13.70103 5.83733,-14.92816 3.05929,-2.35731 -4.27412,19.34082 -4.28831,19.29466 4.08281,13.2306 z M 160.41753,641.58738 c 5.20413,-2.79101 6.72657,-5.50786 3.08649,-5.50786 -4.56898,0 -17.2762,-3.83727 -26.78137,-8.08736 -5.1789,-2.31571 -9.2539,-4.36885 -9.05529,-4.5625 0.19853,-0.19364 4.82959,1.12478 10.29131,2.92984 9.93089,3.28215 29.12897,5.74854 29.12897,3.74224 0,-3.10373 -11.5284,-15.61121 -18.72091,-20.31077 -10.51407,-6.86989 -16.24507,-7.72447 -28.2784,-4.2168 -5.09522,1.48525 -10.60663,2.70044 -12.24738,2.70044 -3.80498,0 -3.74853,1.22601 0.4367,9.48536 4.51459,8.90904 14.75717,18.98168 23.38781,22.99983 8.82806,4.11003 21.92849,4.4871 28.75207,0.82758 z m 465.78606,-0.82758 c 8.63064,-4.01815 18.87326,-14.09079 23.38782,-22.99983 4.18522,-8.25935 4.24167,-9.48536 0.43669,-9.48536 -1.64075,0 -7.15215,-1.21519 -12.24738,-2.70044 -12.03333,-3.50767 -17.76432,-2.65309 -28.2784,4.2168 -7.1925,4.69956 -18.7209,17.20704 -18.7209,20.31077 0,2.0063 19.19812,-0.46009 29.12896,-3.74224 5.46164,-1.80506 10.09282,-3.12349 10.29131,-2.92984 0.19861,0.19365 -3.87639,2.24679 -9.05529,4.5625 -9.50517,4.25009 -22.21234,8.08736 -26.78137,8.08736 -3.71454,0 -2.05416,2.99792 3.1154,5.62514 6.92923,3.5214 20.05757,3.08956 28.72316,-0.94486 z m -433.10296,-23.54789 -0.75352,-13.57144 1.87695,7.94425 c 1.03233,4.36935 1.90301,9.54759 1.93481,11.50724 0.0858,5.32766 2.30435,5.68599 4.84929,0.78345 5.16501,-9.94973 1.35231,-27.19831 -7.69492,-34.81104 l -4.02106,-3.38353 -5.80612,8.24533 c -6.5954,9.36632 -7.29493,14.25239 -3.29993,23.04839 1.96995,4.33718 10.99984,13.80879 13.16481,13.80879 0.27676,0 0.16417,-6.10715 -0.25031,-13.57144 z m 382.72907,2.80134 c 2.05046,-3.0985 3.65828,-7.70019 3.99702,-11.44017 0.51648,-5.70324 0.0445,-6.99239 -5.34151,-14.57445 l -5.9083,-8.31779 -4.02107,3.38352 c -9.04724,7.61274 -12.86006,24.86132 -7.69502,34.81105 2.54502,4.90254 4.76306,4.54421 4.84939,-0.78346 0.0318,-1.95964 0.90247,-7.13788 1.93479,-11.50723 l 1.87686,-7.94425 -0.76794,13.7736 -0.76795,13.7736 4.20675,-2.99545 c 2.31369,-1.6475 5.75037,-5.32804 7.63698,-8.17897 z m -407.91544,-34.24737 1.15944,-9.93032 0.66204,12.57842 0.66198,12.57839 3.97217,-5.86149 c 3.43647,-5.07112 3.96556,-7.03504 3.92318,-14.56447 -0.0509,-9.08059 -3.02359,-16.97833 -8.08545,-21.48251 -2.32959,-2.0729 -2.82118,-1.77548 -9.40918,5.69209 -6.05573,6.86427 -6.94752,8.59584 -6.92221,13.44157 0.033,6.28899 3.47377,14.61502 7.98662,19.32594 2.87603,3.00223 3.08745,3.03752 3.96494,0.66202 0.50981,-1.38013 1.44871,-6.97796 2.08647,-12.43964 z m 422.04054,0 c 0.63775,5.46168 1.57666,11.05951 2.08646,12.43964 0.8775,2.3755 1.08891,2.3402 3.96494,-0.66202 4.51286,-4.71092 7.9537,-13.03695 7.98653,-19.32594 0.0256,-4.84573 -0.86633,-6.5773 -6.92211,-13.44157 -6.58801,-7.46758 -7.0796,-7.76499 -9.40915,-5.69209 -9.55706,8.50415 -11.16678,27.87002 -3.16479,38.07352 l 2.97465,3.79297 0.66203,-12.55742 0.662,-12.55741 z m -462.15293,6.48247 c 3.3079,-1.50714 2.99606,-1.76923 -9.43065,-7.92669 -7.06836,-3.5024 -14.63905,-7.91142 -16.82371,-9.79784 -3.681919,-3.17921 -3.411289,-3.1238 3.70498,0.75846 8.82343,4.81364 26.55236,10.79207 27.15307,9.15638 0.88922,-2.42177 -7.78954,-16.92105 -13.71044,-22.90529 -9.51478,-9.61669 -11.61132,-10.34916 -28.364911,-9.90996 l -14.471916,0.37937 0.783209,3.31012 c 5.740954,24.2641 23.746348,40.88885 42.280938,39.03893 3.0022,-0.29964 6.99795,-1.2462 8.87943,-2.10348 z m 529.84372,-2.39306 c 10.99104,-6.14649 19.97803,-19.3105 23.58196,-34.54239 l 0.78321,-3.31012 -14.47191,-0.37937 c -16.7536,-0.4392 -18.85014,0.29327 -28.36492,9.90996 -5.92089,5.98424 -14.59974,20.48352 -13.71043,22.90529 0.6007,1.63569 18.32963,-4.34274 27.15306,-9.15638 7.11628,-3.88226 7.38691,-3.93767 3.70501,-0.75846 -2.18468,1.88642 -9.92618,6.37923 -17.20324,9.98404 -7.27716,3.6048 -12.93749,6.56318 -12.57844,6.57413 0.35898,0.0107 3.03599,0.90813 5.94889,1.99374 7.15621,2.66698 16.84755,1.42634 25.15681,-3.22044 z m -511.18727,-33.1985 c 1.81561,-7.78298 4.42439,-13.6886 2.93194,-6.63736 -0.38491,1.81907 -1.05256,6.88232 -1.48344,11.25166 l -0.78354,7.94426 4.58927,-4.84016 c 7.9112,-8.34371 9.48001,-19.83222 4.24391,-31.07778 -2.98906,-6.41929 -6.08138,-10.13359 -6.08138,-7.30438 0,0.70919 -2.90547,3.42221 -6.45659,6.02894 -3.55107,2.60673 -7.20234,6.54019 -8.11395,8.74098 -2.33421,5.63535 -0.9764,14.62688 3.31435,21.94864 4.23239,7.22194 4.85416,6.74172 7.83943,-6.0548 z m 463.07283,1.15045 c -1.23569,-10.08578 -0.98062,-13.63141 0.50006,-6.95373 0.46309,2.08855 1.74032,7.0627 2.83824,11.05369 1.89242,6.87919 2.10033,7.12004 4.00103,4.63415 3.7909,-4.95819 6.95387,-13.22258 6.98291,-18.24543 0.0401,-6.98111 -2.92422,-12.01548 -9.90289,-16.81697 -3.27613,-2.254 -5.95653,-4.70055 -5.95653,-5.43676 0,-2.874 -3.0708,0.78954 -6.08137,7.25522 -3.66528,7.87197 -4.06522,16.02573 -1.13063,23.05104 1.94877,4.66515 8.46595,12.71631 9.47593,11.7063 0.25907,-0.259 -0.0678,-4.87039 -0.72675,-10.24751 z M 104.8466,539.83583 c 0.35803,-0.33554 -0.30983,-1.14777 -1.48419,-1.80497 -4.826519,-2.70107 -18.01154,-13.28296 -22.337558,-17.92748 l -4.634157,-4.97533 5.958178,4.72791 c 7.541457,5.98417 21.277607,14.26437 23.671047,14.26884 4.38491,0.008 -1.89223,-18.01946 -9.955206,-28.59049 -4.857048,-6.36797 -9.950464,-8.69651 -21.64728,-9.89641 -5.4687,-0.561 -11.081416,-1.4658 -12.472464,-2.01063 -2.378744,-0.93162 -2.481368,-0.47591 -1.722775,7.6481 1.792855,19.19874 14.086584,35.74745 29.408929,39.5875 3.780493,0.94747 13.832546,0.26896 15.215476,-1.02704 z m 570.84336,-1.83882 c 11.23076,-5.69046 20.51282,-21.51169 22.0127,-37.52077 0.68458,-7.30626 0.56436,-7.76671 -1.78704,-6.84574 -1.38643,0.54307 -6.99526,1.44641 -12.464,2.0074 -5.4687,0.56101 -11.77624,1.96796 -14.01675,3.12658 -7.63779,3.94965 -17.08956,19.60211 -18.63202,30.8552 l -0.86722,6.32671 7.82713,-4.34803 c 4.30495,-2.39142 11.40201,-7.00438 15.77136,-10.25099 l 7.94424,-5.90297 -7.69987,7.37898 c -4.23483,4.05844 -10.74742,9.43138 -14.47232,11.93986 -4.31979,2.90906 -6.08659,4.78082 -4.87853,5.16814 1.04166,0.33398 2.7876,0.91874 3.87998,1.29948 3.14559,1.09639 12.13786,-0.57654 17.38234,-3.23385 z M 136.54862,528.918 c 5.257,-5.257 8.00929,-11.90534 8.02288,-19.37975 0.0107,-4.84374 -3.74622,-16.45538 -5.32139,-16.45538 -1.58227,0 -10.06399,5.35758 -14.84484,9.37688 -5.57286,4.68522 -6.61154,15.02695 -2.45334,24.42726 1.74298,3.94034 3.29754,5.91556 4.05754,5.15555 0.67756,-0.67763 2.72053,-5.10316 4.53987,-9.83452 3.92604,-10.21031 4.45843,-8.05501 0.90033,3.6449 -1.38407,4.5514 -1.97537,8.27526 -1.31386,8.27526 0.6615,0 3.54727,-2.34459 6.41281,-5.2102 z m 489.87076,-3.06506 c -3.5581,-11.69992 -3.0257,-13.85521 0.90033,-3.64492 1.81934,4.73138 3.86231,9.15691 4.53987,9.83454 0.76,0.76001 2.31456,-1.21521 4.05754,-5.15555 4.15822,-9.40032 3.11953,-19.74205 -2.45329,-24.42726 -4.66448,-3.92144 -13.24989,-9.37688 -14.75675,-9.37688 -3.66338,0 -6.42657,16.51387 -4.16587,24.89565 1.44355,5.35175 10.26389,16.14968 13.19204,16.14968 0.6615,0 0.0699,-3.72387 -1.31387,-8.27526 z M 125.20251,493.99218 c 4.5682,-3.16864 10.07726,-14.41937 10.09518,-20.61635 0.0149,-5.01458 -2.65553,-15.00465 -3.84884,-14.40084 -0.42485,0.21496 -4.68616,2.23053 -9.46957,4.47904 -8.69238,4.08595 -9.88265,5.4892 -12.48242,14.71604 -1.06169,3.76772 0.46243,14.14071 2.48377,16.90513 1.31642,1.80029 2.22113,0.9445 6.13362,-5.80247 2.52403,-4.35282 4.76994,-7.73357 4.99069,-7.51279 0.22084,0.22077 -1.11335,3.82662 -2.96469,8.01298 -1.85143,4.18637 -3.36626,7.81664 -3.36626,8.0673 0,0.88736 4.68574,-1.25191 8.42852,-3.84804 z m 512.54348,-4.18049 c -1.86076,-4.20768 -3.20271,-7.83098 -2.98188,-8.05175 0.22075,-0.22078 2.4333,3.10247 4.91665,7.38502 2.48339,4.28252 4.94927,7.51816 5.47985,7.19028 1.88343,-1.16403 4.1004,-13.79434 3.17528,-18.08941 -1.79245,-8.3212 -4.16314,-11.10541 -12.7965,-15.02897 -4.59071,-2.08636 -8.69441,-3.98221 -9.11919,-4.21303 -1.18843,-0.64567 -3.86333,9.34296 -3.84879,14.37201 0.0182,6.1858 5.52041,17.43762 10.09513,20.64301 3.68113,2.57922 7.40413,4.28618 8.11468,3.72042 0.19151,-0.15247 -1.17439,-3.71988 -3.03523,-7.92758 z M 88.816988,486.58468 c 1.478899,-0.93659 1.32522,-1.43368 -0.793579,-2.56764 -1.445241,-0.77343 -5.900148,-5.45506 -9.899901,-10.40365 -9.797074,-12.12095 -10.998813,-14.58389 -2.73074,-5.59635 7.314956,7.95137 17.079197,15.3841 18.432258,14.03101 1.37574,-1.37574 -2.087819,-19.31034 -5.066398,-26.23423 -3.654891,-8.49587 -9.712865,-13.63452 -18.513619,-15.70385 -3.90212,-0.91752 -8.788574,-2.52593 -10.858974,-3.57424 -2.070273,-1.04832 -4.058853,-1.61125 -4.419108,-1.25097 -0.360341,0.36026 -0.977895,4.21436 -1.372344,8.56463 -1.022586,11.27756 3.115848,24.30053 10.324677,32.4902 5.873229,6.6724 8.89694,8.71576 15.119529,10.21744 5.603129,1.35222 7.677408,1.35809 9.778199,0.0276 z m 596.150952,-2.22026 c 5.65715,-2.89399 14.0649,-13.47755 16.56102,-20.84674 2.27647,-6.7209 3.3798,-26.22631 1.58504,-28.02113 -0.47677,-0.47675 -2.56071,-0.01 -4.63098,1.03918 -2.0704,1.04831 -6.95685,2.65672 -10.85897,3.57424 -8.80076,2.06933 -14.85881,7.20798 -18.51362,15.70385 -2.97854,6.92389 -6.44214,24.8585 -5.0664,26.23424 1.35306,1.35308 11.1173,-6.07963 18.43226,-14.03102 8.26807,-8.98754 7.06637,-6.52459 -2.7307,5.59635 -3.99978,4.94859 -8.4547,9.63023 -9.89994,10.40365 -2.12673,1.1382 -2.27798,1.6341 -0.79358,2.60199 2.2282,1.45282 11.13489,0.19111 15.91587,-2.25461 z M 116.64319,459.3874 c 4.88898,-2.52818 11.75811,-10.45066 12.99487,-14.98741 1.24441,-4.56531 1.33518,-17.00182 0.13274,-18.20422 -0.49804,-0.49807 -5.24531,0.49496 -10.54943,2.20674 -7.83559,2.52877 -10.09525,3.89527 -12.05104,7.28771 -3.08617,5.35296 -4.3012,15.91738 -2.39642,20.83415 l 1.48187,3.82481 6.04421,-7.79694 c 3.3243,-4.28833 6.39026,-8.09485 6.81313,-8.45896 0.98265,-0.84617 -4.66773,8.78978 -7.95816,13.57144 -2.20511,3.2045 -2.24872,3.64111 -0.36352,3.64111 1.17808,0 3.81135,-0.86328 5.85175,-1.91843 z m 530.0709,-1.72268 c -1.37804,-2.00263 -3.85318,-6.0244 -5.50029,-8.9373 l -2.99468,-5.29616 3.09309,3.97017 c 6.46006,8.29228 10.19405,11.87877 11.2588,10.81405 2.27471,-2.27471 1.19175,-17.25485 -1.5952,-22.06646 -2.27003,-3.91903 -4.17255,-5.11445 -12.32812,-7.74651 -5.30409,-1.71178 -9.95257,-2.80369 -10.32976,-2.42643 -1.60726,1.60719 -1.93914,11.31237 -0.56181,16.42729 2.37801,8.83111 12.51539,18.88407 19.05627,18.8975 2.30308,0.005 2.29874,-0.15266 -0.0984,-3.63615 z m -566.198094,-30.453 c -4.437361,-6.23424 -11.967667,-20.19166 -10.893618,-20.19166 0.307186,0 2.19507,2.79256 4.19522,6.20566 5.350082,9.12924 13.997993,18.15828 15.350315,16.02677 1.790424,-2.82217 1.264096,-18.63596 -0.858088,-25.78214 -2.723585,-9.17163 -6.476911,-13.4536 -15.133488,-17.26552 -4.057942,-1.7869 -8.457017,-4.21583 -9.775885,-5.39763 -2.078531,-1.86253 -2.557854,-1.89123 -3.598319,-0.21535 -1.73653,2.79703 -3.934129,13.81321 -3.934129,19.72113 0,16.32923 12.787416,32.95527 25.48563,33.13613 l 3.638877,0.0518 -4.476515,-6.28919 z m 603.402314,4.47543 c 9.35389,-3.90826 18.08274,-19.50111 18.08274,-32.30202 0,-5.1258 -2.31526,-16.18578 -3.93413,-18.79328 -1.04046,-1.67588 -1.51979,-1.64718 -3.59832,0.21535 -1.31882,1.1818 -5.71794,3.61073 -9.77588,5.39763 -8.65658,3.81192 -12.40986,8.09389 -15.13349,17.26552 -2.12218,7.14618 -2.64851,22.95997 -0.85809,25.78214 1.35232,2.13151 10.00024,-6.89753 15.35032,-16.02677 2.00015,-3.4131 3.88803,-6.20566 4.19522,-6.20566 1.07396,0 -6.45626,13.95742 -10.89358,20.19166 l -4.47656,6.28921 3.35037,0 c 1.84274,0 5.30391,-0.81619 7.6914,-1.81378 z M 120.1165,421.02305 c 6.1833,-4.05148 10.40645,-12.23941 10.98299,-21.29432 l 0.52902,-8.30668 -5.11018,1.16329 c -2.81057,0.63979 -7.33318,1.49303 -10.05012,1.89607 -8.37125,1.2418 -14.87008,13.19241 -13.23453,24.33656 l 0.63568,4.33057 7.32067,-7.07121 c 6.75952,-6.52903 6.40773,-5.01166 -0.96964,4.18316 -1.46069,1.82056 -2.66904,3.69424 -2.68527,4.16371 -0.0477,1.38454 9.01771,-1.06615 12.58138,-3.40115 z m 526.27401,-2.41812 c -7.4676,-9.51669 -7.40904,-9.85937 0.40366,-2.36179 l 7.54133,7.237 -0.0223,-7.89902 c -0.0359,-13.20406 -6.60581,-21.7349 -16.77363,-21.78198 -2.31931,-0.0107 -5.74528,-0.60058 -7.61323,-1.31078 -3.37897,-1.28468 -3.39611,-1.25604 -3.3672,5.62719 0.0498,11.9466 7.74196,23.54747 16.95452,25.57125 1.94646,0.42761 4.13484,0.94167 4.86303,1.1424 2.77725,0.76545 2.28289,-0.78317 -1.98667,-6.22427 z M 124.93023,384.6615 c 6.83299,-4.33333 11.70442,-12.73631 11.70442,-20.18943 l 0,-4.63871 -9.42753,0.34139 c -10.08613,0.36522 -13.90635,2.4766 -17.71303,9.78954 -2.24113,4.30554 -3.99256,15.87108 -2.40339,15.87108 0.66529,0 5.05265,-3.05233 9.74962,-6.78295 l 8.53995,-6.78296 -7.90282,8.107 -7.90274,8.10701 4.66443,0 c 2.86743,0 6.9863,-1.47244 10.69109,-3.82197 z m 515.46142,-4.28504 -7.90287,-8.107 8.54,6.78296 c 4.69693,3.73062 9.08428,6.78295 9.74958,6.78295 1.58916,0 -0.16227,-11.56554 -2.4034,-15.87108 -3.80668,-7.31294 -7.6269,-9.42432 -17.71302,-9.78954 l -9.42753,-0.34139 0,4.63871 c 0,11.48012 11.68794,24.0114 22.39551,24.0114 l 4.66443,0 z M 84.270758,372.92598 c -5.178611,-12.05886 -7.731676,-21.94906 -2.979116,-11.54041 4.657242,10.19979 10.347891,19.2961 11.591097,18.52775 2.244755,-1.38733 4.348902,-14.4624 3.726842,-23.15774 -0.809804,-11.31735 -3.270936,-15.41926 -13.050828,-21.75164 -4.306531,-2.78846 -7.83009,-5.60012 -7.83009,-6.24817 0,-3.24702 -2.661024,-0.42174 -5.437355,5.77294 -2.477983,5.52898 -3.120936,9.27515 -3.142253,18.30942 -0.02432,10.32922 0.334534,11.94856 3.960813,17.87458 2.745019,4.48574 5.823663,7.44472 9.879923,9.49549 3.240828,1.63849 6.296301,2.97909 6.789999,2.97909 0.493698,0 -1.085404,-4.61761 -3.509032,-10.26133 z m 594.542702,6.41694 c 2.17547,-1.23342 5.75037,-5.14597 7.94425,-8.69456 3.63296,-5.87625 3.98653,-7.46555 3.96229,-17.81021 -0.0211,-9.03426 -0.66427,-12.78044 -3.14225,-18.30941 -2.77633,-6.19471 -5.43735,-9.01999 -5.43735,-5.77297 0,0.64805 -3.52352,3.45971 -7.83006,6.24815 -9.77993,6.33238 -12.24106,10.43427 -13.05083,21.75163 -0.62209,8.69534 1.48208,21.77042 3.72681,23.15776 1.24312,0.76833 6.93385,-8.32797 11.59109,-18.52777 4.764,-10.43371 2.19326,-0.50399 -3.00059,11.59016 -4.22405,9.83579 -4.29657,10.2719 -1.57339,9.46042 1.57009,-0.46788 4.63457,-1.85983 6.81003,-3.09322 z M 133.28537,351.0373 c 5.90689,-3.34557 10.62843,-9.58539 12.56778,-16.60941 0.71618,-2.5935 1.16932,-4.84752 1.00692,-5.00894 -0.16225,-0.16142 -4.49199,-0.70667 -9.62146,-1.21166 -8.9247,-0.87864 -9.51731,-0.7575 -13.75986,2.81235 -4.75674,4.00253 -9.27645,12.4951 -9.3237,17.51951 l -0.0298,3.08709 4.96514,-3.0066 c 2.73081,-1.65365 6.45464,-3.85554 8.27526,-4.89311 l 3.31013,-1.88651 -3.42792,3.13006 c -1.88533,1.72154 -5.16226,4.43755 -7.28221,6.0356 l -3.85433,2.90555 5.95817,0.0518 c 3.81548,0.0332 7.84881,-1.01902 11.21519,-2.9257 z m 504.61739,-0.0317 c -2.11995,-1.59803 -5.39691,-4.2746 -7.28225,-5.94792 -2.74788,-2.43884 -1.90566,-2.21001 4.24561,1.15345 4.22042,2.3077 8.03982,3.82957 8.48746,3.38193 1.84771,-1.84772 -2.85633,-12.33269 -7.71115,-17.18748 l -5.16759,-5.16758 -9.5854,0.94369 c -5.27191,0.51903 -9.71816,1.07577 -9.88046,1.23718 -0.16235,0.16143 0.29078,2.41546 1.0068,5.00895 3.19634,11.57596 13.00032,19.6288 23.78309,19.5351 l 5.95822,-0.0518 -3.85433,-2.90555 z M 98.180831,327.72401 c -1.33473,-4.28872 -2.765551,-11.58752 -3.179507,-16.21952 l -0.752604,-8.42183 2.474191,9.6412 c 2.71248,10.57006 6.630239,20.14978 8.240609,20.14978 1.71691,0 6.20606,-13.51582 6.59684,-19.86134 0.80902,-13.13811 0.40184,-14.28857 -8.24445,-23.29284 -7.565613,-7.87871 -8.330687,-8.34723 -10.47001,-6.41121 -3.636156,3.29068 -8.083351,14.95602 -8.826614,23.15289 -1.073095,11.83489 3.148563,21.08944 12.114565,26.55688 2.24931,1.37159 4.176059,2.49603 4.281749,2.49874 0.10595,0.002 -0.899919,-3.50401 -2.234769,-7.79275 z m 569.864559,-0.15919 c 4.46467,-5.30597 6.61489,-13.52903 5.74879,-21.98506 -0.78366,-7.65009 -5.30742,-19.13694 -8.77102,-22.27151 -2.139,-1.93574 -2.89094,-1.48152 -10.2714,6.20446 -8.99384,9.36613 -10.9118,15.42612 -8.41233,26.57944 1.71376,7.64686 5.31431,16.78149 6.61472,16.78149 1.56609,0 5.51153,-9.7043 8.19201,-20.14978 l 2.47418,-9.6412 -0.75261,8.42183 c -0.41394,4.632 -1.83841,11.91052 -3.1655,16.17449 l -2.41294,7.75265 3.66156,-1.89347 c 2.01381,-1.0414 5.20644,-3.72941 7.09454,-5.97334 z m -525.98111,-6.81009 c 7.51113,-2.54766 11.93544,-6.48393 15.19473,-13.51881 l 3.10537,-6.70256 -6.23775,-1.646 c -10.12692,-2.67234 -14.23885,-2.21319 -19.20151,2.14402 -4.47738,3.93121 -9.98931,13.96461 -8.49336,15.46057 0.44224,0.44214 4.77305,-1.05348 9.62423,-3.32359 4.85107,-2.27013 9.20017,-4.12495 9.66455,-4.12183 1.42508,0.01 -10.74974,7.75809 -14.87397,9.46638 -3.4529,1.43024 -3.60311,1.71609 -1.36326,2.59478 3.73097,1.46366 7.54009,1.35679 12.58097,-0.35296 z m 486.32146,0.35296 c 2.23985,-0.87869 2.08964,-1.16454 -1.36326,-2.59478 -4.12423,-1.70829 -16.29905,-9.45681 -14.87396,-9.46638 0.46437,-0.002 4.81348,1.8517 9.66454,4.12182 4.85119,2.27012 9.182,3.76574 9.62411,3.3236 1.49609,-1.49596 -4.01586,-11.52936 -8.49324,-15.46058 -4.96262,-4.35721 -9.07457,-4.81635 -19.2016,-2.14401 l -6.23762,1.646 3.10538,6.70256 c 5.14478,11.10459 18.20407,17.6267 27.77565,13.87176 z M 117.99022,286.86314 c -1.55389,-6.69154 -1.48484,-23.02336 0.10784,-25.48784 0.90649,-1.40277 1.28938,0.37949 1.30379,6.06838 0.0211,8.45751 2.45923,23.0722 3.84417,23.04417 1.37776,-0.028 6.89582,-9.28013 8.86751,-14.86836 1.03018,-2.91985 1.87302,-8.27773 1.87302,-11.9064 0,-5.77544 -0.77495,-7.65298 -6.21875,-15.06717 l -6.21886,-8.4696 -4.28546,4.15372 c -9.19109,8.9083 -13.21702,27.85688 -8.02742,37.78203 1.75866,3.36342 8.01131,9.71623 9.5631,9.71623 0.18928,0 -0.17478,-2.23433 -0.80894,-4.96516 z m 43.4947,2.9159 c 2.69745,-1.1271 6.30985,-3.36141 8.02751,-4.96517 3.01281,-2.81305 7.48879,-10.10441 6.61018,-10.76788 -0.23582,-0.17802 -3.10991,-1.37164 -6.38687,-2.65251 -8.44584,-3.30116 -13.79505,-2.97512 -19.23241,1.17223 -4.53207,3.45671 -9.12682,10.42464 -8.32189,12.62003 0.22624,0.6172 4.73105,-0.25294 10.01072,-1.93363 5.27963,-1.6807 9.59929,-2.78912 9.59929,-2.46313 0,0.53107 -9.64274,4.99067 -16.55053,7.65437 -2.64809,1.02109 -2.64809,1.02109 0,2.10996 4.25825,1.75094 10.96553,1.43123 16.244,-0.77427 z m 451.14321,0.77427 c 2.6481,-1.08887 2.6481,-1.08887 0,-2.10996 -6.90779,-2.6637 -16.55052,-7.1233 -16.55052,-7.65437 0,-0.32599 4.31965,0.78243 9.59928,2.46313 5.27967,1.68069 9.78449,2.55083 10.01072,1.93363 0.80494,-2.19539 -3.78982,-9.16332 -8.32185,-12.62003 -5.43739,-4.14735 -10.78661,-4.47339 -19.2324,-1.17223 -3.27709,1.28086 -6.1511,2.47449 -6.38689,2.65251 -0.87746,0.6626 3.59548,7.9531 6.60156,10.7598 6.38011,5.95697 17.41692,8.56958 24.2801,5.74752 z m 34.57533,-6.40142 c 7.1868,-10.51712 3.78878,-30.02693 -7.01658,-40.2856 l -3.79874,-3.60657 -6.25287,8.1843 c -5.5916,7.31888 -6.25276,8.90774 -6.25276,15.02549 0,3.76263 0.84284,9.23013 1.87301,12.14998 1.9717,5.58823 7.48975,14.8405 8.86751,14.86836 1.38494,0.0281 3.82291,-14.58666 3.84417,-23.04417 0.0149,-5.68889 0.39735,-7.47115 1.30383,-6.06838 1.60124,2.47781 1.65844,18.80962 0.0901,25.56889 -1.15077,4.95773 -1.1212,5.01339 1.6866,3.17444 1.57191,-1.02947 4.11725,-3.7145 5.6562,-5.96674 z M 183.98455,261.71023 c 4.25196,-1.94487 10.90799,-8.661 10.90799,-11.00655 0,-1.66217 -12.53752,-7.86497 -15.89721,-7.86497 -4.32589,0 -12.74397,4.86433 -15.76827,9.1117 -4.49125,6.30735 -4.5651,6.28765 13.1289,3.50381 3.96035,-0.62309 3.67162,-0.35682 -1.98607,1.83135 -3.64114,1.40825 -7.96081,2.60663 -9.59933,2.66309 -4.17329,0.14375 -3.72111,2.53659 0.66204,3.5033 2.00258,0.44169 4.23693,0.97777 4.96512,1.19128 2.18373,0.64031 8.98414,-0.82768 13.58683,-2.93301 z m 410.01874,0.8361 c 1.59004,-1.44999 1.62097,-1.4323 -8.51803,-4.86629 -5.1375,-1.74004 -6.73853,-2.62908 -3.97213,-2.2058 18.58311,2.84343 19.14056,2.5329 10.66616,-5.94147 -7.23984,-7.23984 -12.81048,-8.14214 -22.11003,-3.58124 -3.90094,1.91324 -7.09274,4.17317 -7.09274,5.02205 0,3.25304 10.52392,11.55635 16.18648,12.7711 5.92356,1.27073 12.73591,0.72062 14.84029,-1.19835 z M 145.35871,227.9696 c 0.84536,-1.51057 1.0904,0.97088 0.75376,7.63579 -0.27423,5.43046 -0.1038,11.44597 0.37847,13.36781 l 0.87692,3.49424 3.91133,-3.74723 c 5.20921,-4.99078 10.50169,-15.86961 10.55645,-21.69897 0.0412,-4.36147 -7.52882,-22.32282 -9.48386,-22.50298 -1.80335,-0.1662 -11.77752,10.68687 -14.1767,15.42607 -5.5577,10.97799 -5.22532,22.52648 0.8568,29.77184 l 3.56095,4.24199 0.75682,-11.87539 c 0.41617,-6.53148 1.32035,-12.88239 2.00906,-14.11317 z m 476.67014,15.3688 c 4.05687,-10.62288 0.0984,-23.58634 -10.27722,-33.6554 -2.97053,-2.88286 -5.77602,-5.20698 -6.23435,-5.16474 -1.94263,0.17902 -9.52381,18.13515 -9.47094,22.43192 0.0741,6.05519 5.25539,16.87811 10.38572,21.69592 l 4.06913,3.82134 0.87697,-3.49424 c 0.48234,-1.92184 0.6527,-7.93735 0.37842,-13.36781 -0.34348,-6.80113 -0.10059,-9.16899 0.77929,-7.60933 0.70292,1.24534 1.53209,7.50295 1.84275,13.90581 0.54363,11.20453 0.65629,11.55883 3.00071,9.43717 1.33973,-1.21243 3.43204,-4.81272 4.64952,-8.00064 z m -415.94021,-5.19494 c 2.37271,-1.12593 5.92093,-3.72435 7.88485,-5.77427 l 3.57077,-3.72714 -6.47657,-4.15604 c -8.20006,-5.26192 -14.88648,-5.51371 -21.7929,-0.82067 -2.69968,1.83446 -5.58311,4.5959 -6.40761,6.13654 -1.4822,2.76944 -1.37396,2.79392 9.5586,2.16103 11.85584,-0.68631 10.69989,0.78147 -1.83639,2.33197 -4.18725,0.51788 -7.61323,1.36942 -7.61323,1.8923 0,3.83818 16.24843,5.2135 23.11248,1.95628 z m 366.24135,-0.40367 3.02665,-2.45083 -7.84512,-0.96786 c -12.72892,-1.57035 -14.02711,-3.05047 -2.06825,-2.35819 10.93247,0.63289 11.04072,0.60841 9.55864,-2.16103 -0.82451,-1.54064 -3.70796,-4.30208 -6.40763,-6.13654 -6.90642,-4.69304 -13.59284,-4.44125 -21.7929,0.82067 l -6.47659,4.15604 3.54812,3.70352 c 5.1446,5.36972 10.89062,7.78064 18.6259,7.8149 4.68415,0.0208 7.74777,-0.73358 9.83118,-2.42068 z M 175.69528,200.68866 c 0.36547,-0.3655 0.27828,3.90427 -0.19374,9.48839 -0.56072,6.63323 -0.38586,10.15292 0.50432,10.15292 2.5823,0 11.99901,-10.64381 14.95206,-16.90034 2.62699,-5.56576 2.78132,-6.86558 1.37268,-11.56659 -0.87272,-2.91289 -2.26637,-7.67945 -3.0967,-10.59234 -0.83045,-2.91289 -1.68077,-5.54084 -1.88979,-5.83986 -0.20886,-0.29903 -3.21436,1.39052 -6.67858,3.75457 -8.21087,5.60305 -13.35186,12.91958 -15.17066,21.59044 -1.31705,6.27926 -1.16007,7.66144 1.54511,13.6028 l 3.0112,6.61335 2.48971,-9.8194 c 1.36938,-5.40068 2.78885,-10.11845 3.15439,-10.48394 z m 58.58755,14.88294 c 3.09496,-1.81364 5.62717,-3.87662 5.62717,-4.58441 0,-1.84511 -7.98121,-8.81472 -12.08703,-10.55499 -2.54087,-1.07694 -4.93796,-1.08296 -8.87712,-0.0223 -5.90491,1.59003 -13.90829,7.53282 -12.72435,9.44836 0.40907,0.66186 4.13447,1.25459 8.27886,1.31717 6.62306,0.10005 7.05427,0.2586 3.56291,1.3102 -2.18467,0.65803 -6.05754,0.82055 -8.60627,0.36116 l -4.63411,-0.83522 2.54034,2.85515 c 5.49278,6.17333 17.0704,6.47648 26.9196,0.70483 z m 314.12922,1.0958 3.3101,-2.20469 -7.19632,-1.06288 c -9.66424,-1.42739 -10.07196,-2.33816 -1.04675,-2.33816 4.08357,0 7.75944,-0.54152 8.16851,-1.20336 1.18379,-1.91556 -6.81946,-7.85834 -12.72438,-9.44837 -6.36928,-1.71506 -10.16811,-0.48519 -16.66101,5.39399 -5.17521,4.68597 -5.30794,5.8624 -0.98106,8.69749 9.17339,6.01063 20.05438,6.87929 27.13091,2.16598 z m 33.95546,-6.49035 c -0.47201,-5.58412 -0.55917,-9.85389 -0.19374,-9.48839 0.36554,0.36549 1.78502,5.08326 3.15439,10.48394 l 2.48975,9.8194 2.94657,-6.46733 c 5.42806,-11.91393 0.44373,-25.24324 -13.09118,-35.00877 -6.66376,-4.80801 -8.07636,-5.13788 -8.0772,-1.88632 -4.1e-4,1.27438 -1.19206,5.45152 -2.64809,9.28251 -3.30163,8.68647 -3.29485,10.05976 0.0837,17.03834 2.80061,5.78523 12.39378,16.37954 14.83171,16.37954 0.89029,0 1.06507,-3.51969 0.50441,-10.15292 z M 260.10167,198.78852 c 2.73081,-1.52842 4.96516,-3.12222 4.96516,-3.54179 0,-0.41956 -2.51229,-3.35122 -5.58292,-6.5148 -5.47709,-5.64303 -5.72324,-5.74181 -12.99594,-5.21575 -6.91436,0.50014 -17.20832,5.44007 -15.30415,7.34426 0.38198,0.38201 4.43811,1.48653 9.01358,2.4545 l 8.31887,1.75992 -9.26827,-0.67225 -9.26832,-0.67224 2.76853,2.79107 c 6.71459,6.76943 17.68453,7.67865 27.35346,2.26708 z m 260.55611,0.99257 c 1.89878,-0.98189 4.24848,-2.74457 5.2216,-3.91707 1.60558,-1.93459 0.9229,-2.06735 -7.37874,-1.43501 l -9.14787,0.6968 8.50195,-1.96845 c 4.6762,-1.08265 8.73223,-2.19864 9.01356,-2.47999 0.28133,-0.28132 -1.40454,-1.87591 -3.74651,-3.5435 -2.73294,-1.94605 -6.82879,-3.24518 -11.43561,-3.62721 -6.99412,-0.58002 -7.32704,-0.44846 -13.0307,5.14929 -3.21922,3.15948 -5.85322,6.08781 -5.85322,6.50741 0,1.08211 7.52714,5.39269 11.70803,6.70484 4.18949,1.31483 11.36157,0.38784 16.14751,-2.08711 z M 209.29804,174.94192 c 1.10605,-1.10611 1.02807,0.0183 -0.25623,3.69328 -1.0156,2.90597 -2.2583,7.5179 -2.76175,10.24875 -1.28347,6.96306 1.25316,6.52832 10.33409,-1.77112 9.44235,-8.62974 11.08534,-13.46876 8.25421,-24.31046 -1.12237,-4.29782 -1.73682,-8.30569 -1.36558,-8.9064 0.95555,-1.5462 -0.23227,-1.3672 -5.48154,0.82608 -7.74354,3.2355 -13.57323,8.57311 -17.1058,15.66204 -3.89353,7.81325 -4.20155,12.30394 -1.31726,19.20441 l 2.0576,4.92263 3.02598,-8.98945 c 1.6643,-4.94421 3.74155,-9.70509 4.61628,-10.57976 z m 342.29097,13.94203 c -0.50346,-2.73085 -1.74615,-7.34278 -2.76174,-10.24875 -1.04939,-3.0026 -1.2283,-4.66536 -0.41448,-3.85155 0.78764,0.78763 2.86809,5.54177 4.62324,10.5648 l 3.19126,9.13276 2.05057,-4.90769 c 2.8771,-6.88584 2.56695,-11.3809 -1.32425,-19.18943 -3.53255,-7.08893 -9.36225,-12.42654 -17.10579,-15.66204 -5.76806,-2.41004 -5.86753,-2.40306 -5.68322,0.3988 0.0837,1.27438 -0.60291,5.42192 -1.52603,9.21675 -2.56155,10.52966 -0.1358,16.03458 11.10999,25.21293 7.12504,5.81519 9.00572,5.6553 7.84045,-0.66658 z m -265.58145,-2.98242 5.71414,-2.59323 -3.66018,-4.99093 c -5.56117,-7.58308 -8.53116,-9.56329 -14.3884,-9.59358 -5.48229,-0.0284 -14.56451,3.63815 -14.56451,5.87968 0,0.70238 3.27697,2.35218 7.28225,3.66624 6.40183,2.10035 6.64195,2.2952 1.98607,1.61167 -2.91287,-0.42765 -6.69056,-1.11287 -8.39487,-1.52273 -2.88193,-0.69304 -2.97453,-0.54611 -1.32403,2.10048 2.40798,3.86113 11.34061,8.09792 17.00115,8.06368 2.54872,-0.0154 7.20556,-1.19498 10.34838,-2.62128 z m 206.04559,0.0397 c 2.96076,-1.43642 6.1818,-3.89779 7.15788,-5.46973 1.65156,-2.65989 1.55982,-2.80641 -1.32404,-2.11291 -1.70431,0.40984 -5.48196,1.09507 -8.39485,1.52271 -4.65588,0.68355 -4.41575,0.4887 1.98605,-1.61165 4.00518,-1.31407 7.28224,-2.96387 7.28224,-3.66624 0,-2.24153 -9.08219,-5.90804 -14.56447,-5.8797 -5.85736,0.0303 -8.82724,2.01051 -14.38843,9.59359 l -3.66019,4.99094 5.71415,2.59323 c 7.3013,3.3135 13.41891,3.32554 20.19166,0.0397 z M 239.91,178.52937 c 0,-0.36411 -1.19163,-0.0242 -2.64806,0.75519 -1.45647,0.77946 -2.6481,1.71512 -2.6481,2.07923 0,0.36411 1.19163,0.0242 2.6481,-0.75518 1.45643,-0.77948 2.64806,-1.71513 2.64806,-2.07924 z m 283.34523,2.78784 c 0,-0.33848 -1.34057,-1.26509 -2.9791,-2.05912 -2.86078,-1.38632 -2.87699,-1.36187 -0.40896,0.61545 2.70136,2.16427 3.38806,2.45684 3.38806,1.44367 z m -274.07692,-8.05885 c 0,-0.36411 -1.78746,0.2623 -3.97213,1.39205 -2.18466,1.12974 -3.97212,2.35198 -3.97212,2.71609 0,0.3641 1.78746,-0.26231 3.97212,-1.39205 2.18467,-1.12973 3.97213,-2.35198 3.97213,-2.71609 z m 65.32807,1.90977 3.18427,-1.45083 -3.2582,-5.82957 c -1.79201,-3.20627 -4.52982,-6.72018 -6.08393,-7.80871 -3.75488,-2.63003 -13.25515,-2.51448 -18.52164,0.22524 l -4.2374,2.20439 6.62022,3.07476 c 7.446,3.45828 6.45583,4.10121 -1.81954,1.18147 -6.50676,-2.29569 -6.9023,-1.03996 -1.40423,4.4581 6.49183,6.49182 16.52649,8.04306 25.52045,3.94515 z m 151.19544,-1.20602 c 2.27535,-1.40623 4.80555,-4.02408 5.62264,-5.81747 l 1.48568,-3.26072 -5.39691,1.90415 c -8.21806,2.89948 -9.17508,2.2421 -1.75388,-1.20466 l 6.62022,-3.07476 -4.23736,-2.20439 c -5.26652,-2.73972 -14.76679,-2.85527 -18.52178,-0.22524 -2.18466,1.53021 -10.36196,13.83657 -9.2557,13.9293 0.13082,0.011 2.62108,0.90549 5.53398,1.98784 6.33527,2.35402 14.08453,1.56207 19.90311,-2.03405 z m 50.93319,3.37038 c 0,-0.34541 -1.78745,-1.55234 -3.97213,-2.68208 -4.97957,-2.57503 -5.28091,-1.4566 -0.33101,1.22874 4.16088,2.25731 4.30314,2.30537 4.30314,1.45334 z m -268.03258,-8.97128 c 10.27994,-6.97347 11.8953,-10.06138 11.45022,-21.88817 -0.20902,-5.55348 -0.55487,-10.27205 -0.76852,-10.4857 -0.21363,-0.21366 -3.24516,0.5849 -6.73671,1.77458 -8.24053,2.80782 -17.16491,11.39151 -19.29163,18.55518 -1.61577,5.44243 -0.85574,15.0232 1.19174,15.0232 0.57072,0 2.4513,-3.01819 4.17912,-6.70711 3.99045,-8.51973 6.0908,-10.02557 2.58895,-1.85614 -4.77564,11.14116 -2.89783,12.56071 7.38683,5.58416 z m 270.68067,2.42684 c 0,-1.03196 -1.18338,-4.63691 -2.62966,-8.011 -3.50182,-8.16943 -1.40147,-6.66359 2.58898,1.85614 1.72772,3.68892 3.60839,6.70711 4.17911,6.70711 2.0475,0 2.80751,-9.58077 1.19175,-15.0232 -2.12685,-7.16367 -11.05121,-15.74736 -19.29164,-18.55518 -3.49155,-1.18968 -6.53748,-1.97381 -6.76882,-1.74251 -0.23134,0.23131 -0.57707,4.94733 -0.76848,10.48006 -0.4077,11.78542 1.23296,14.90907 11.48232,21.86174 6.83428,4.63599 10.01644,5.407 10.01644,2.42684 z m -237.67272,-16.6569 c 3.00485,-1.4546 7.19631,-4.45366 9.31457,-6.6646 3.36022,-3.50731 3.91919,-5.22097 4.38354,-13.43966 l 0.53228,-9.41978 -5.45622,0.73184 c -7.18979,0.96434 -16.90211,6.76823 -20.10069,12.01173 -3.23922,5.31008 -4.57068,12.19304 -3.02769,15.65109 1.0764,2.41233 1.61532,2.02017 5.53321,-4.02608 5.8651,-9.05133 7.51664,-9.73198 2.78356,-1.14715 -2.11083,3.8287 -3.84872,7.40812 -3.86197,7.9543 -0.0434,1.77781 4.31809,1.0502 9.89941,-1.65169 z m 204.5476,1.65169 c -0.0128,-0.54618 -1.75102,-4.1256 -3.86187,-7.9543 -4.73308,-8.58483 -3.08152,-7.90418 2.78356,1.14715 3.9179,6.04625 4.45685,6.43841 5.53323,4.02608 1.54299,-3.45805 0.21154,-10.34101 -3.02772,-15.65109 -3.19855,-5.2435 -12.91089,-11.04739 -20.10065,-12.01173 l -5.45624,-0.73184 0.53228,9.41978 c 0.4632,8.19838 1.02745,9.93668 4.35154,13.40625 5.85471,6.11105 19.33304,11.95853 19.24587,8.3497 z"
       id="path4286"
       inkscape:connector-curvature="0"
       sodipodi:nodetypes="sscccsssccsccssssscsssscssssscccssssscsssssscsssscsssssscssscsssssssssscscssssscssssscsscssscsssssssssssssscccsscscsscscsssscsscsssssscccscssssscsscsssccscssssssssssssssscscssscccsccssscsssssscccscsscsscscscssscsscsssssscssssssssssssssscssssscscsscscssscccsscccccssccccscsssssccsscssscccccssscsscsscsscsssssscssscscscssscscssccssssccccscsccscsscsscssscssccssssscssccsssscscssssscsccscccccssccsccsccsccscsssssccssssssccsssssccssccscccssssscsccccscsccccsccssscsscccsscsssccsscsssscssccsscscscccscscccsscscsscccssccsscscsscccsssssssssscccsssssscssscccccssccsccsccscccsssscsccsccccscsssscsscccscsssscsscscsscsscscssscscscsscsccscccssscsssssscsccsssssssssccscsscscssscccccccsssssssscscssssssccsccscscscccscccsccscssssscsscssssccsscssccscccsscccccscscssssccsscssscsscssssccscsscccsccsssscscccssssscsccssssscscsccssscsccssscsssccscscssssssscsccsssssscsccssssssssssssssscssscsssssccsscsccssssssssssssssssscscsssssscscssssscscssssscssc" />
    <path
       style="fill:#653b1a;fill-opacity:1;fill-rule:evenodd;stroke:none;stroke-width:0.41299698px;stroke-linecap:butt;stroke-linejoin:miter;stroke-opacity:1"
       d="m 488.72047,757.53397 c -0.19237,-0.83986 0,0 0.18661,-1.96342 0.15732,-1.65529 1.70551,-3.23923 4.54095,-2.77475 16.98342,2.78208 66.78816,30.94186 71.66304,26.29055 6.18952,-5.90566 -7.0287,-21.11472 -19.71361,-27.89967 -12.68491,-6.78498 -66.93433,-44.84838 -164.87362,-43.96339 -97.93931,0.88499 -204.01806,44.97864 -192.92862,70.51235 4.34982,7.65635 70.75439,-29.17232 77.1313,-23.74203 1.1218,0.84135 -2.07026,6.99964 -1.36994,7.40453 1.22764,0.70977 4.72138,-7.86606 3.28846,-9.72616 -3.26893,-4.24349 -30.32189,7.30072 -45.53059,11.37243 l -9.71374,-7.94655 c 0,0 59.01731,-41.46953 163.81317,-44.3346 94.68833,-2.58873 162.78513,42.60193 162.78513,42.60193 l -6.01507,10.10499 c -15.96859,-5.06497 -35.51627,-16.68735 -44.36489,-12.48549 0,0 -0.36238,0.99715 -0.23423,2.08168 0.12814,1.08452 1.33565,4.4676 1.33565,4.4676 z"
       id="path4292"
       inkscape:connector-curvature="0"
       sodipodi:nodetypes="csssssccssccsccczc" />
    <path
       sodipodi:nodetypes="czcc"
       inkscape:connector-curvature="0"
       id="path4273"
       d="m 536.66051,749.99111 c 14.93113,6.57164 27.3355,19.71813 25.63262,22.8547 -1.70288,3.13657 -34.99216,-14.19745 -36.61803,-13.38452 z"
       style="fill:url(#linearGradient4281);fill-opacity:1;fill-rule:evenodd;stroke:none;stroke-width:1px;stroke-linecap:butt;stroke-linejoin:miter;stroke-opacity:1" />
    <path
       style="fill:none;fill-rule:evenodd;stroke:none;stroke-width:1px;stroke-linecap:butt;stroke-linejoin:miter;stroke-opacity:1"
       d="m 222.47658,730.57005 c 90.7884,-53.10125 231.24304,-49.8446 313.59139,-1.25157"
       id="path4446"
       inkscape:connector-curvature="0"
       sodipodi:nodetypes="cc" />
    <path
       style="fill:url(#linearGradient4263);fill-opacity:1;fill-rule:evenodd;stroke:none;stroke-width:1px;stroke-linecap:butt;stroke-linejoin:miter;stroke-opacity:1"
       d="m 217.81414,750.7054 c -14.93113,6.57164 -27.3355,19.71813 -25.63262,22.8547 1.70288,3.13657 34.99216,-14.19745 36.61803,-13.38452 z"
       id="path4255"
       inkscape:connector-curvature="0"
       sodipodi:nodetypes="czcc" />
    <path
       style="fill:url(#linearGradient4308);fill-opacity:1;fill-rule:evenodd;stroke:none;stroke-width:0.41299698px;stroke-linecap:butt;stroke-linejoin:miter;stroke-opacity:1"
       d="m 143.64058,735.54308 43.65965,41.88972 c -4.80431,-24.93445 94.18184,-69.50524 189.09364,-69.61826 94.91176,-0.11304 191.34839,43.13846 189.97862,68.73325 -0.14102,2.63476 29.81991,-28.01632 44.9261,-41.5947 9.72823,-16.36679 -104.66513,-84.6329 -233.533,-84.87452 -128.86786,-0.24163 -246.77974,72.09386 -234.12501,85.46451 z"
       id="path4288"
       inkscape:connector-curvature="0"
       sodipodi:nodetypes="cczsczc" />
    <path
       style="fill:url(#linearGradient4279);fill-opacity:1;fill-rule:evenodd;stroke:none;stroke-width:1px;stroke-linecap:butt;stroke-linejoin:miter;stroke-opacity:1"
       d="m 610.83407,734.82879 -44.37394,42.60401 c 1.98722,-10.3137 -13.06894,-24.1962 -38.96364,-36.69326 l 28.81674,-49.34817 c 38.24905,18.41542 60.38008,37.24672 54.52084,43.43742 z"
       id="path4271"
       inkscape:connector-curvature="0"
       sodipodi:nodetypes="ccccc" />
    <path
       sodipodi:nodetypes="ccccc"
       inkscape:connector-curvature="0"
       id="path4372"
       d="m 143.64058,735.54308 43.65965,41.88972 c -1.98722,-10.3137 13.40442,-24.87087 39.29912,-37.36793 l -28.43793,-47.95921 c -38.24905,18.41542 -60.38008,37.24672 -54.52084,43.43742 z"
       style="fill:url(#linearGradient4376);fill-opacity:1;fill-rule:evenodd;stroke:none;stroke-width:1px;stroke-linecap:butt;stroke-linejoin:miter;stroke-opacity:1" />
  </g>
</svg>
